# xmcd CD database file
#
# Track frame offsets:
#	182
#	11252
#	26025
#	38190
#	49017
#	59755
#	72867
#	86925
#	97762
#	106120
#	120267
#	133822
#	144310
#	161242
#	177750
#	191437
#	206880
#	215055
#
# Disc length: 3030 seconds
#
# Submitted via: cddb-tool 0.4.5
#
#blues,classical,country,data,folk,jazz,newage,reggae,rock,soundtrack,misc
# Revision: 0
# Processed by: cddbd v1.5.1PL2 Copyright (c) Steve Scherf et al.
#
DISCID=000bd412
DTITLE=Robert Cogoi - Mes premiers grands succes Vol.1
DYEAR=1999
DGENRE=Chanson
TTITLE0=Si Je T'ai Fait De La Peine
TTITLE1=Quand Le Jour Se Leve
TTITLE2=Le Pantin
TTITLE3=Je M'sens Tres Seul
TTITLE4=Je Fais Serment
TTITLE5=Ramona
TTITLE6=Donne Un Peu D'amour
TTITLE7=Prends Ta Guitare
TTITLE8=Dans La Vie Faut Pas S'en Faire
TTITLE9=Couches Dans Le Foin
TTITLE10=Le Comte De Walstenstein
TTITLE11=Pas Une Place Pour Me Garer
TTITLE12=Felicie Aussi
TTITLE13=Les Asticots Dans Les Bigarreaux
TTITLE14=Je T'aime Laura, Je T'aime
TTITLE15=Reviens Dans Mes Bras
TTITLE16=Une Biere Pour Mon Cheval
TTITLE17=La Chanson Populaire
EXTD=
EXTT0=
EXTT1=
EXTT2=
EXTT3=
EXTT4=
EXTT5=
EXTT6=
EXTT7=
EXTT8=
EXTT9=
EXTT10=
EXTT11=
EXTT12=
EXTT13=
EXTT14=
EXTT15=
EXTT16=
EXTT17=
PLAYORDER=
